HIERARCHY
ROOT hip
{
  OFFSET 0.0 0.0 0.0
  CHANNELS 6 Xposition Yposition Zposition Zrotation Yrotation Xrotation
  JOINT abdomen
  {
    OFFSET 0.0 20.6881 -0.73152
    CHANNELS 3 Zrotation Xrotation Yrotation
    JOINT chest
    {
      OFFSET 0.0 11.7043 -0.48768
      CHANNELS 3 Zrotation Xrotation Yrotation
      JOINT neck
      {
        OFFSET 0.0 22.1894 -2.19456
        CHANNELS 3 Zrotation Xrotation Yrotation
        JOINT head
        {
          OFFSET -0.24384 7.07133 1.2192
          CHANNELS 3 Zrotation Xrotation Yrotation
          JOINT leftEye
          {
            OFFSET 4.14528 8.04674 8.04672
            CHANNELS 3 Zrotation Xrotation Yrotation
            End Site
            {
              OFFSET 1.0 0.0 0.0
            }
          }
          JOINT rightEye
          {
            OFFSET -3.6576 8.04674 8.04672
            CHANNELS 3 Zrotation Xrotation Yrotation
            End Site
            {
              OFFSET 1.0 0.0 0.0
            }
          }
        }
      }
      JOINT rCollar
      {
        OFFSET -2.68224 19.2634 -4.8768
        CHANNELS 3 Zrotation Xrotation Yrotation
        JOINT rShldr
        {
          OFFSET -8.77824 -1.95073 1.46304
          CHANNELS 3 Zrotation Xrotation Yrotation
          JOINT rForeArm
          {
            OFFSET -28.1742 -1.7115 0.48768
            CHANNELS 3 Zrotation Xrotation Yrotation
            JOINT rHand
            {
              OFFSET -22.5879 0.773209 7.07136
              CHANNELS 3 Zrotation Xrotation Yrotation
              JOINT rThumb1
              {
                OFFSET -1.2192 -0.487915 3.41376
                CHANNELS 3 Zrotation Xrotation Yrotation
                JOINT rThumb2
                {
                  OFFSET -3.37035 -0.52449 3.41376
                  CHANNELS 3 Zrotation Xrotation Yrotation
                  End Site
                  {
                    OFFSET -1.78271 -1.18214 1.43049
                  }
                }
              }
              JOINT rIndex1
              {
                OFFSET -7.75947 0.938293 5.60832
                CHANNELS 3 Zrotation Xrotation Yrotation
                JOINT rIndex2
                {
                  OFFSET -2.54057 -0.884171 1.56538
                  CHANNELS 3 Zrotation Xrotation Yrotation
                  End Site
                  {
                    OFFSET -1.62519 -0.234802 1.16502
                  }
                }
              }
              JOINT rMid1
              {
                OFFSET -8.24714 1.18213 3.41376
                CHANNELS 3 Zrotation Xrotation Yrotation
                JOINT rMid2
                {
                  OFFSET -3.10165 -0.590103 1.0647
                  CHANNELS 3 Zrotation Xrotation Yrotation
                  End Site
                  {
                    OFFSET -2.48547 -0.328903 0.83742
                  }
                }
              }
              JOINT rRing1
              {
                OFFSET -8.82822 0.546677 1.51678
                CHANNELS 3 Zrotation Xrotation Yrotation
                JOINT rRing2
                {
                  OFFSET -2.60934 -0.819778 -0.0198488
                  CHANNELS 3 Zrotation Xrotation Yrotation
                  End Site
                  {
                    OFFSET -2.33842 -0.294052 0.168128
                  }
                }
              }
              JOINT rPinky1
              {
                OFFSET -8.27202 -0.0477905 -0.4584
                CHANNELS 3 Zrotation Xrotation Yrotation
                JOINT rPinky2
                {
                  OFFSET -1.82734 -0.647385 -0.700984
                  CHANNELS 3 Zrotation Xrotation Yrotation
                  End Site
                  {
                    OFFSET -1.69225 -0.51767 -0.607171
                  }
                }
              }
            }
          }
        }
      }
      JOINT lCollar
      {
        OFFSET 2.68224 19.2634 -4.8768
        CHANNELS 3 Zrotation Xrotation Yrotation
        JOINT lShldr
        {
          OFFSET 8.77824 -1.95073 1.46304
          CHANNELS 3 Zrotation Xrotation Yrotation
          JOINT lForeArm
          {
            OFFSET 28.1742 -1.7115 0.48768
            CHANNELS 3 Zrotation Xrotation Yrotation
            JOINT lHand
            {
              OFFSET 22.5879 0.773209 7.07136
              CHANNELS 3 Zrotation Xrotation Yrotation
              JOINT lThumb1
              {
                OFFSET 1.2192 -0.487915 3.41376
                CHANNELS 3 Zrotation Xrotation Yrotation
                JOINT lThumb2
                {
                  OFFSET 3.37035 -0.52449 3.41376
                  CHANNELS 3 Zrotation Xrotation Yrotation
                  End Site
                  {
                    OFFSET 1.78271 -1.18214 1.43049
                  }
                }
              }
              JOINT lIndex1
              {
                OFFSET 7.75947 0.938293 5.60832
                CHANNELS 3 Zrotation Xrotation Yrotation
                JOINT lIndex2
                {
                  OFFSET 2.54057 -0.884171 1.56538
                  CHANNELS 3 Zrotation Xrotation Yrotation
                  End Site
                  {
                    OFFSET 1.62519 -0.234802 1.16502
                  }
                }
              }
              JOINT lMid1
              {
                OFFSET 8.24714 1.18213 3.41376
                CHANNELS 3 Zrotation Xrotation Yrotation
                JOINT lMid2
                {
                  OFFSET 3.10165 -0.590103 1.0647
                  CHANNELS 3 Zrotation Xrotation Yrotation
                  End Site
                  {
                    OFFSET 2.48547 -0.328903 0.83742
                  }
                }
              }
              JOINT lRing1
              {
                OFFSET 8.82822 0.546677 1.51678
                CHANNELS 3 Zrotation Xrotation Yrotation
                JOINT lRing2
                {
                  OFFSET 2.60934 -0.819778 -0.0198488
                  CHANNELS 3 Zrotation Xrotation Yrotation
                  End Site
                  {
                    OFFSET 2.33842 -0.294052 0.168128
                  }
                }
              }
              JOINT lPinky1
              {
                OFFSET 8.27202 -0.0477905 -0.4584
                CHANNELS 3 Zrotation Xrotation Yrotation
                JOINT lPinky2
                {
                  OFFSET 1.82734 -0.647385 -0.700984
                  CHANNELS 3 Zrotation Xrotation Yrotation
                  End Site
                  {
                    OFFSET 1.69225 -0.51767 -0.607171
                  }
                }
              }
            }
          }
        }
      }
    }
  }
  JOINT rButtock
  {
    OFFSET -8.77824 4.35084 1.2192
    CHANNELS 3 Zrotation Xrotation Yrotation
    JOINT rThigh
    {
      OFFSET 0.0 -1.70687 -2.19456
      CHANNELS 3 Zrotation Xrotation Yrotation
      JOINT rShin
      {
        OFFSET 0.0 -36.8199 0.73152
        CHANNELS 3 Zrotation Xrotation Yrotation
        JOINT rFoot
        {
          OFFSET 0.73152 -45.1104 -5.12064
          CHANNELS 3 Zrotation Xrotation Yrotation
          End Site
          {
            OFFSET -1.1221 -3.69964 12.103
          }
        }
      }
    }
  }
  JOINT lButtock
  {
    OFFSET 8.77824 4.35084 1.2192
    CHANNELS 3 Zrotation Xrotation Yrotation
    JOINT lThigh
    {
      OFFSET 0.0 -1.70687 -2.19456
      CHANNELS 3 Zrotation Xrotation Yrotation
      JOINT lShin
      {
        OFFSET 0.0 -36.8199 0.73152
        CHANNELS 3 Zrotation Xrotation Yrotation
        JOINT lFoot
        {
          OFFSET -0.73152 -45.1104 -5.12064
          CHANNELS 3 Zrotation Xrotation Yrotation
          End Site
          {
            OFFSET 1.1221 -3.69964 12.103
          }
        }
      }
    }
  }
}
MOTION
Frames: 5
Frame Time: 0.00833333
-27.960000000000008 68.0736 1.588000000000001 48.2632 -86.2798 -34.9942 -0.928819 50.7348 -2.31649 -1.88834 -9.20175 -1.46206 2.03401 18.496 0.179754 2.22384 -70.3071 -0.251337 -0.0 0.0 0.0 -0.0 0.0 0.0 1.44965e-13 2.55539e-12 4.46241e-14 78.2478 29.7981 5.82923 -18.524 -11.2613 35.2065 -0.014064 -3.38384 -0.476126 -2.11373e-09 -1.05354e-09 -2.11275e-10 -3.65851e-09 -1.82093e-09 -3.66372e-10 -2.11373e-09 -1.05354e-09 -2.11286e-10 7.73091 5.47488 0.417314 -2.11373e-09 -1.05354e-09 -2.11284e-10 2.90554 0.965183 0.102902 -2.11372e-09 -1.05354e-09 -2.11277e-10 10.2786 0.731801 0.0259123 -2.11373e-09 -1.05353e-09 -2.11272e-10 2.22167 -0.733487 -0.20892 1.44919e-13 2.55538e-12 4.44253e-14 -71.493 27.1509 -8.05392 18.0985 -10.793 -34.2416 0.892483 -25.799 3.89551 -4.11884e-10 -8.15873e-10 -4.48192e-11 -7.0088e-10 -1.41368e-09 -8.99406e-11 -4.1189e-10 -8.15873e-10 -4.4816e-11 -7.73091 5.47488 -0.417314 -4.11884e-10 -8.15874e-10 -4.48228e-11 -2.90554 0.965183 -0.102902 -4.11891e-10 -8.15874e-10 -4.48237e-11 -10.2786 0.731801 -0.0259123 -4.11883e-10 -8.15873e-10 -4.48357e-11 -2.22167 -0.733487 0.20892 -2.03217e-16 0.0 -3.88251e-19 -19.8591 -75.3299 -12.2604 -1.48088 64.6062 1.70088 1.11709 16.1943 -7.7618 2.03217e-16 0.0 3.88251e-19 11.3172 -56.8035 27.1206 4.72216 80.1997 -5.86046 0.203288 8.41686 2.70699
-28.454999999999984 68.1256 1.4673000000000016 46.3686 -86.1772 -33.012 -0.762363 50.7449 -2.42206 -1.83898 -9.18679 -1.46733 2.0322 18.5017 0.161285 2.21293 -70.3796 -0.308442 -0.0 0.0 0.0 -0.0 0.0 0.0 1.27161e-13 1.04881e-12 5.08104e-15 78.171 29.8252 5.89069 -18.5336 -11.2721 35.2285 -0.0143167 -3.41397 -0.480377 -2.32742e-09 -1.45847e-09 -3.97266e-10 -4.03059e-09 -2.5203e-09 -6.89536e-10 -2.32741e-09 -1.45847e-09 -3.97277e-10 7.73091 5.47488 0.417314 -2.32742e-09 -1.45847e-09 -3.97276e-10 2.90554 0.965183 0.102902 -2.32741e-09 -1.45847e-09 -3.97269e-10 10.2786 0.731801 0.0259123 -2.32741e-09 -1.45847e-09 -3.97262e-10 2.22167 -0.733487 -0.20892 1.27061e-13 1.04881e-12 4.82713e-15 -71.4907 27.1082 -8.01878 18.0856 -10.779 -34.2126 0.893691 -25.815 3.89828 -4.15088e-11 -1.36163e-09 -1.22896e-10 -5.49355e-11 -2.35299e-09 -2.18747e-10 -4.15147e-11 -1.36163e-09 -1.22891e-10 -7.73091 5.47488 -0.417314 -4.15096e-11 -1.36163e-09 -1.22899e-10 -2.90554 0.965183 -0.102902 -4.15143e-11 -1.36163e-09 -1.22898e-10 -10.2786 0.731801 -0.0259123 -4.15077e-11 -1.36163e-09 -1.22908e-10 -2.22167 -0.733487 0.20892 -2.03217e-16 0.0 -3.88251e-19 -19.891 -75.3024 -12.2408 -1.3961 63.6099 1.59752 1.31947 16.9362 -8.21437 2.03217e-16 0.0 3.88251e-19 11.3545 -56.5241 27.0066 4.71185 80.1877 -5.86217 0.176893 8.44016 2.81118
-28.953000000000003 68.1677 1.3436999999999983 44.5303 -86.0569 -31.0795 -0.610629 50.7532 -2.53133 -1.78933 -9.17525 -1.47483 2.03434 18.5081 0.14384 2.22242 -70.4501 -0.348243 -0.0 0.0 0.0 -0.0 0.0 0.0 1.00659e-13 -4.77277e-15 -1.87355e-14 78.103 29.8519 5.94105 -18.5443 -11.2841 35.253 -0.0145921 -3.44669 -0.484991 -2.2821e-09 -1.64565e-09 -4.78025e-10 -3.95364e-09 -2.84361e-09 -8.2999e-10 -2.2821e-09 -1.64565e-09 -4.78034e-10 7.73091 5.47488 0.417314 -2.2821e-09 -1.64565e-09 -4.78034e-10 2.90554 0.965183 0.102902 -2.2821e-09 -1.64565e-09 -4.78027e-10 10.2786 0.731801 0.0259123 -2.2821e-09 -1.64565e-09 -4.78018e-10 2.22167 -0.733487 -0.20892 1.00518e-13 -4.78209e-15 -1.90336e-14 -71.4854 27.0656 -7.976 18.0728 -10.7651 -34.1837 0.894035 -25.8195 3.89908 2.12806e-10 -1.63568e-09 -1.62695e-10 3.87157e-10 -2.82408e-09 -2.82895e-10 2.12801e-10 -1.63568e-09 -1.62689e-10 -7.73091 5.47488 -0.417314 2.12805e-10 -1.63568e-09 -1.62698e-10 -2.90554 0.965183 -0.102902 2.12802e-10 -1.63568e-09 -1.62695e-10 -10.2786 0.731801 -0.0259123 2.12808e-10 -1.63567e-09 -1.62704e-10 -2.22167 -0.733487 0.20892 -2.03217e-16 0.0 -3.88251e-19 -20.0293 -75.2819 -12.3753 -1.33194 62.7832 1.51445 1.52812 17.6079 -8.69484 2.03217e-16 0.0 3.88251e-19 11.4073 -56.2593 26.9061 4.71534 80.2007 -5.87659 0.156031 8.47688 2.87282
-29.45599999999999 68.1965 1.2167999999999992 42.8487 -85.9177 -29.3003 -0.475302 50.762 -2.6478 -1.73617 -9.16814 -1.48557 2.04104 18.515 0.129369 2.26069 -70.5205 -0.360411 -0.0 0.0 0.0 -0.0 0.0 0.0 5.49147e-14 -4.71928e-13 -1.99212e-14 78.0395 29.8827 5.98357 -18.5562 -11.2974 35.2801 -0.0149091 -3.48411 -0.49027 -1.82724e-09 -1.53596e-09 -3.96162e-10 -3.16693e-09 -2.65434e-09 -6.88163e-10 -1.82724e-09 -1.53596e-09 -3.96171e-10 7.73091 5.47488 0.417314 -1.82724e-09 -1.53596e-09 -3.9617e-10 2.90554 0.965183 0.102902 -1.82724e-09 -1.53596e-09 -3.96164e-10 10.2786 0.731801 0.0259123 -1.82724e-09 -1.53596e-09 -3.96155e-10 2.22167 -0.733487 -0.20892 5.47497e-14 -4.71936e-13 -2.02582e-14 -71.4779 27.021 -7.92333 18.0604 -10.7517 -34.1558 0.893264 -25.8094 3.89731 3.13584e-10 -1.53861e-09 -1.46745e-10 5.59167e-10 -2.65582e-09 -2.52565e-10 3.1358e-10 -1.53861e-09 -1.46738e-10 -7.73091 5.47488 -0.417314 3.13584e-10 -1.53861e-09 -1.46749e-10 -2.90554 0.965183 -0.102902 3.1358e-10 -1.53861e-09 -1.46744e-10 -10.2786 0.731801 -0.0259123 3.13586e-10 -1.5386e-09 -1.46752e-10 -2.22167 -0.733487 0.20892 -2.03217e-16 0.0 -3.88251e-19 -20.2783 -75.2614 -12.6706 -1.28342 62.1069 1.44493 1.76093 18.2229 -9.27233 2.03217e-16 0.0 3.88251e-19 11.4746 -56.0088 26.8214 4.73018 80.2344 -5.90084 0.140643 8.53626 2.88705
-29.966000000000008 68.2088 1.0843999999999987 41.2271 -85.768 -27.5831 -0.351244 50.7691 -2.77254 -1.67954 -9.16389 -1.4991 2.05025 18.5218 0.117855 2.32574 -70.5876 -0.346166 -0.0 0.0 0.0 -0.0 0.0 0.0 -8.87993e-15 -6.19264e-13 -7.1811e-15 77.9789 29.9186 6.02031 -18.5697 -11.3125 35.3109 -0.0152687 -3.52593 -0.49617 -1.06069e-09 -1.22102e-09 -2.03381e-10 -1.8402e-09 -2.11066e-09 -3.5384e-10 -1.06068e-09 -1.22102e-09 -2.03388e-10 7.73091 5.47488 0.417314 -1.06069e-09 -1.22102e-09 -2.03387e-10 2.90554 0.965183 0.102902 -1.06068e-09 -1.22102e-09 -2.03382e-10 10.2786 0.731801 0.0259123 -1.06069e-09 -1.22102e-09 -2.03372e-10 2.22167 -0.733487 -0.20892 -9.06095e-15 -6.19269e-13 -7.56003e-15 -71.4687 26.9722 -7.86145 18.0475 -10.7378 -34.1269 0.891515 -25.7862 3.89329 3.33322e-10 -1.19142e-09 -9.43398e-11 5.87869e-10 -2.05642e-09 -1.59998e-10 3.33318e-10 -1.19142e-09 -9.43337e-11 -7.73091 5.47488 -0.417314 3.33322e-10 -1.19142e-09 -9.43454e-11 -2.90554 0.965183 -0.102902 3.33317e-10 -1.19142e-09 -9.43377e-11 -10.2786 0.731801 -0.0259123 3.33325e-10 -1.19142e-09 -9.43444e-11 -2.22167 -0.733487 0.20892 -2.03217e-16 0.0 -3.88251e-19 -20.6299 -75.243 -13.1146 -1.24745 61.5683 1.3863 2.01736 18.8092 -9.91666 2.03217e-16 0.0 3.88251e-19 11.5579 -55.7749 26.7476 4.75595 80.2862 -5.93448 0.130888 8.61429 2.8534
